<svg width="64px" height="64px" viewBox="10 10 44 44" version="1.1" xmlns:xlink="http://www.w3.org/1999/xlink" xmlns="http://www.w3.org/2000/svg">
  <style>
    .stroke {
      stroke: #000000;
    }
    .fill {
      fill: #000000;
    }
  </style>
  <g id="icon" stroke-width="2" class="stroke" fill="none">
    <rect fill="none" x="12" y="12" width="40" height="40" rx="1" />
    <line x1="12" y1="30.5" x2="52" y2="30.5" />
    <rect fill="none" x="16" y="16" width="7.5" height="11" rx="1" />
    <circle class="fill" r="0.6" cx="19.75" cy="19.5" />
    <circle class="fill" r="0.6" cx="19.75" cy="23.5" />
    <rect fill="none" x="28.5" y="16" width="19.5" height="11" rx="1" />
    <circle class="fill" r="0.6" cx="32.5" cy="19.5" />
    <circle class="fill" r="0.6" cx="32.5" cy="23.5" />
    <circle class="fill" r="0.6" cx="38.25" cy="19.5" />
    <circle class="fill" r="0.6" cx="38.25" cy="23.5" />
    <circle class="fill" r="0.6" cx="44" cy="19.5" />
    <circle class="fill" r="0.6" cx="44" cy="23.5" />
    <path class="fill" d="M14.75 31 14.75 49A.5.5 0 0015.25 49.5L17.25 49.5A.5.5 0 0017.75 49L17.75 44.5A.75.75 0 0117 43.75L17 31Z" />
    <path class="fill" d="M21.75 31 21.75 43.75A.75.75 0 0121 44.5L21 49A.5.5 0 0021.5 49.5L23.5 49.5A.5.5 0 0024 49L24 44.5A.75.75 0 0123.25 43.75L23.25 31Z" />
    <path class="fill" d="M28 31 28 43.75A.75.75 0 0127.25 44.5L27.25 49A.5.5 0 0027.75 49.5L29.75 49.5A.5.5 0 0030.25 49L30.25 31Z" />
    <path class="fill" d="M33.75 31 33.75 49A.5.5 0 0034.25 49.5L36.25 49.5A.5.5 0 0036.75 49L36.75 44.5A.75.75 0 0136 43.75L36 31Z" />
    <path class="fill" d="M40.75 31 40.75 43.75A.75.75 0 0140 44.5L40 49A.5.5 0 0040.5 49.5L42.5 49.5A.5.5 0 0043 49L43 44.5A.75.75 0 0142.25 43.75L42.25 31Z" />
    <path class="fill" d="M47 31 47 43.75A.75.75 0 0146.25 44.5L46.25 49A.5.5 0 0046.75 49.5L48.75 49.5A.5.5 0 0049.25 49L49.25 31Z" />
  </g>
</svg>