<svg width="64px" height="64px" viewBox="10 10 44 44" version="1.1" xmlns:xlink="http://www.w3.org/1999/xlink" xmlns="http://www.w3.org/2000/svg">
  <style>
    .stroke {
      stroke: #000000;
    }
    .fill {
      fill: #000000;
    }
  </style>
  <g id="icon" stroke-width="2" class="stroke" fill="none">
    <g transform="rotate(45) translate(-2.5 2.5)" >
      <path fill="none" d="M 40 -12 L 40 14 A 4 4 0 0 0 44 18 L 46 18 A 4 4 0 0 0 50 14 L 50 -12" />
      <circle fill="none" r="7" cx="45" cy="-17" />
      <line fill="none" x1="45" y1="1" x2="45" y2="8" />
      <line fill="none" x1="40" y1="-5" x2="50" y2="-5" />
    </g>
    <circle class="fill" r="0.7" cx="45.5" cy="50" />
    <path fill="none" d="M 42 47.5 A 5.5 5.5 0 0 1 49 47.5" />
    <path fill="none" d="M 40 45 A 8.5 8.5 0 0 1 51 45" />
    <path fill="none" d="M 38 42.5 A 11.5 11.5 0 0 1 53 42.5" />
  </g>
</svg>