<svg width="64px" height="64px" viewBox="10 10 44 44" version="1.1" xmlns:xlink="http://www.w3.org/1999/xlink" xmlns="http://www.w3.org/2000/svg">
  <style>
    .stroke {
      stroke: #000000;
    }
    .fill {
      fill: #000000;
    }
  </style>
  <g id="icon" stroke-width="2" class="stroke" fill="none">
    <g transform="translate(0 0)" >
      <rect fill="none" x="12" y="12" width="40" height="10" rx="1" />
      <circle class="fill" r="1.5" cx="38.5" cy="17.5" />
      <circle class="fill" r="1.5" cx="46.5" cy="17.5" />
      <circle class="fill" r="0.6" cx="17" cy="17.5" />
      <circle class="fill" r="0.6" cx="22.25" cy="17.5" />
      <circle class="fill" r="0.6" cx="27.5" cy="17.5" />
    </g>
    <g transform="translate(0 10)" >
      <rect fill="none" x="12" y="12" width="40" height="10" rx="1" />
      <circle class="fill" r="1.5" cx="38.5" cy="17.5" />
      <circle class="fill" r="1.5" cx="46.5" cy="17.5" />
      <circle class="fill" r="0.6" cx="17" cy="17.5" />
      <circle class="fill" r="0.6" cx="22.25" cy="17.5" />
      <circle class="fill" r="0.6" cx="27.5" cy="17.5" />
    </g>
    <g transform="translate(0 20)" >
      <rect fill="none" x="12" y="12" width="40" height="10" rx="1" />
      <circle class="fill" r="1.5" cx="38.5" cy="17.5" />
      <circle class="fill" r="1.5" cx="46.5" cy="17.5" />
      <circle class="fill" r="0.6" cx="17" cy="17.5" />
      <circle class="fill" r="0.6" cx="22.25" cy="17.5" />
      <circle class="fill" r="0.6" cx="27.5" cy="17.5" />
    </g>
    <g transform="translate(0 30)" >
      <rect fill="none" x="12" y="12" width="40" height="10" rx="1" />
      <circle class="fill" r="1.5" cx="38.5" cy="17.5" />
      <circle class="fill" r="1.5" cx="46.5" cy="17.5" />
      <circle class="fill" r="0.6" cx="17" cy="17.5" />
      <circle class="fill" r="0.6" cx="22.25" cy="17.5" />
      <circle class="fill" r="0.6" cx="27.5" cy="17.5" />
    </g>
  </g>
</svg>